<svg xmlns="http://www.w3.org/2000/svg" width="24" height="24" viewBox="0 0 24 24" fill="none" stroke="currentColor" stroke-width="2" stroke-linecap="round" stroke-linejoin="round" class="icon icon-tabler icons-tabler-outline icon-tabler-brand-reddit"><path stroke="none" d="M0 0h24v24H0z" fill="none"/><path d="M12 8c-3.5 0 -5 2.5 -5 4.5c0 1.2 .5 2.4 1.5 3.2l-1 3.3l3.5 -1c1 .5 2.2 .7 3 .7c3.5 0 5 -2.5 5 -4.5c0 -2 -1.5 -4.5 -5 -4.5z" /><path d="M12 3v5" /><path d="M12 3l4 1" /><circle cx="16" cy="4" r="1" /><circle cx="9.5" cy="12.5" r=".5" fill="currentColor" /><circle cx="14.5" cy="12.5" r=".5" fill="currentColor" /><path d="M9.5 15.5c.5 1 1.5 1.5 2.5 1.5s2 -.5 2.5 -1.5" /></svg>